<?xml version="1.0" encoding="utf-8" ?>
<svg baseProfile="full" height="1600px" version="1.1" width="1600px" xmlns="http://www.w3.org/2000/svg" xmlns:ev="http://www.w3.org/2001/xml-events" xmlns:xlink="http://www.w3.org/1999/xlink"><defs><marker id="arrow" markerHeight="10" markerWidth="10" orient="auto" refX="10" refY="3"><path d="M0,0 L0,6 L9,3 z" fill="#000" /></marker></defs><rect fill="#E1F5FE" fill-opacity="0.2" height="400" rx="10" ry="10" stroke="#01579B" stroke-width="2" width="600" x="600" y="600" /><text fill="#01579B" font-weight="bold" text-anchor="middle" x="900" y="630">User &amp; Org Management</text><rect fill="#E8F5E9" fill-opacity="0.2" height="500" rx="10" ry="10" stroke="#2E7D32" stroke-width="2" width="600" x="600" y="50" /><text fill="#2E7D32" font-weight="bold" text-anchor="middle" x="900" y="80">Survey System</text><rect fill="#FFF3E0" fill-opacity="0.2" height="900" rx="10" ry="10" stroke="#EF6C00" stroke-width="2" width="300" x="1250" y="400" /><text fill="#EF6C00" font-weight="bold" text-anchor="middle" x="1400" y="430">Analysis &amp; Discussion</text><rect fill="#F3E5F5" fill-opacity="0.2" height="500" rx="10" ry="10" stroke="#7B1FA2" stroke-width="2" width="600" x="600" y="1050" /><text fill="#7B1FA2" font-weight="bold" text-anchor="middle" x="900" y="1080">Casual Board</text><rect fill="#FFEBEE" fill-opacity="0.2" height="400" rx="10" ry="10" stroke="#C62828" stroke-width="2" width="400" x="100" y="600" /><text fill="#C62828" font-weight="bold" text-anchor="middle" x="300" y="630">Notifications</text><rect fill="#ffffff" height="66" rx="4" ry="4" stroke="#333" stroke-width="1" width="220" x="630" y="660" /><text fill="#000" font-family="monospace" font-size="14px" font-weight="bold" text-anchor="middle" x="740.0" y="680">users</text><line stroke="#ccc" stroke-width="1" x1="630" x2="850" y1="690" y2="690" /><text fill="#333" font-family="monospace" font-size="12px" x="640" y="708">PK id</text><rect fill="#ffffff" height="66" rx="4" ry="4" stroke="#333" stroke-width="1" width="220" x="950" y="660" /><text fill="#000" font-family="monospace" font-size="14px" font-weight="bold" text-anchor="middle" x="1060.0" y="680">organizations</text><line stroke="#ccc" stroke-width="1" x1="950" x2="1170" y1="690" y2="690" /><text fill="#333" font-family="monospace" font-size="12px" x="960" y="708">PK id</text><rect fill="#ffffff" height="98" rx="4" ry="4" stroke="#333" stroke-width="1" width="220" x="790" y="800" /><text fill="#000" font-family="monospace" font-size="14px" font-weight="bold" text-anchor="middle" x="900.0" y="820">organization_members</text><line stroke="#ccc" stroke-width="1" x1="790" x2="1010" y1="830" y2="830" /><text fill="#333" font-family="monospace" font-size="12px" x="800" y="848">PK id</text><text fill="#333" font-family="monospace" font-size="12px" x="800" y="864">FK user_id</text><text fill="#333" font-family="monospace" font-size="12px" x="800" y="880">FK org_id</text><rect fill="#ffffff" height="82" rx="4" ry="4" stroke="#333" stroke-width="1" width="220" x="630" y="900" /><text fill="#000" font-family="monospace" font-size="14px" font-weight="bold" text-anchor="middle" x="740.0" y="920">sessions</text><line stroke="#ccc" stroke-width="1" x1="630" x2="850" y1="930" y2="930" /><text fill="#333" font-family="monospace" font-size="12px" x="640" y="948">PK id</text><text fill="#333" font-family="monospace" font-size="12px" x="640" y="964">FK user_id</text><rect fill="#ffffff" height="98" rx="4" ry="4" stroke="#333" stroke-width="1" width="220" x="790" y="400" /><text fill="#000" font-family="monospace" font-size="14px" font-weight="bold" text-anchor="middle" x="900.0" y="420">surveys</text><line stroke="#ccc" stroke-width="1" x1="790" x2="1010" y1="430" y2="430" /><text fill="#333" font-family="monospace" font-size="12px" x="800" y="448">PK id</text><text fill="#333" font-family="monospace" font-size="12px" x="800" y="464">FK org_id</text><text fill="#333" font-family="monospace" font-size="12px" x="800" y="480">FK created_by</text><rect fill="#ffffff" height="82" rx="4" ry="4" stroke="#333" stroke-width="1" width="220" x="790" y="250" /><text fill="#000" font-family="monospace" font-size="14px" font-weight="bold" text-anchor="middle" x="900.0" y="270">questions</text><line stroke="#ccc" stroke-width="1" x1="790" x2="1010" y1="280" y2="280" /><text fill="#333" font-family="monospace" font-size="12px" x="800" y="298">PK id</text><text fill="#333" font-family="monospace" font-size="12px" x="800" y="314">FK survey_id</text><rect fill="#ffffff" height="114" rx="4" ry="4" stroke="#333" stroke-width="1" width="200" x="650" y="100" /><text fill="#000" font-family="monospace" font-size="14px" font-weight="bold" text-anchor="middle" x="750.0" y="120">answers</text><line stroke="#ccc" stroke-width="1" x1="650" x2="850" y1="130" y2="130" /><text fill="#333" font-family="monospace" font-size="12px" x="660" y="148">PK id</text><text fill="#333" font-family="monospace" font-size="12px" x="660" y="164">FK sv_id</text><text fill="#333" font-family="monospace" font-size="12px" x="660" y="180">FK q_id</text><text fill="#333" font-family="monospace" font-size="12px" x="660" y="196">FK u_id</text><rect fill="#ffffff" height="98" rx="4" ry="4" stroke="#333" stroke-width="1" width="200" x="950" y="100" /><text fill="#000" font-family="monospace" font-size="14px" font-weight="bold" text-anchor="middle" x="1050.0" y="120">survey_comments</text><line stroke="#ccc" stroke-width="1" x1="950" x2="1150" y1="130" y2="130" /><text fill="#333" font-family="monospace" font-size="12px" x="960" y="148">PK id</text><text fill="#333" font-family="monospace" font-size="12px" x="960" y="164">FK sv_id</text><text fill="#333" font-family="monospace" font-size="12px" x="960" y="180">FK u_id</text><rect fill="#ffffff" height="82" rx="4" ry="4" stroke="#333" stroke-width="1" width="220" x="1290" y="480" /><text fill="#000" font-family="monospace" font-size="14px" font-weight="bold" text-anchor="middle" x="1400.0" y="500">analysis_sessions</text><line stroke="#ccc" stroke-width="1" x1="1290" x2="1510" y1="510" y2="510" /><text fill="#333" font-family="monospace" font-size="12px" x="1300" y="528">PK id</text><text fill="#333" font-family="monospace" font-size="12px" x="1300" y="544">FK org_id</text><rect fill="#ffffff" height="82" rx="4" ry="4" stroke="#333" stroke-width="1" width="220" x="1290" y="600" /><text fill="#000" font-family="monospace" font-size="14px" font-weight="bold" text-anchor="middle" x="1400.0" y="620">analysis_results</text><line stroke="#ccc" stroke-width="1" x1="1290" x2="1510" y1="630" y2="630" /><text fill="#333" font-family="monospace" font-size="12px" x="1300" y="648">PK id</text><text fill="#333" font-family="monospace" font-size="12px" x="1300" y="664">FK session_id</text><rect fill="#ffffff" height="82" rx="4" ry="4" stroke="#333" stroke-width="1" width="220" x="1290" y="720" /><text fill="#000" font-family="monospace" font-size="14px" font-weight="bold" text-anchor="middle" x="1400.0" y="740">issue_definitions</text><line stroke="#ccc" stroke-width="1" x1="1290" x2="1510" y1="750" y2="750" /><text fill="#333" font-family="monospace" font-size="12px" x="1300" y="768">PK id</text><text fill="#333" font-family="monospace" font-size="12px" x="1300" y="784">FK session_id</text><rect fill="#ffffff" height="98" rx="4" ry="4" stroke="#333" stroke-width="1" width="220" x="1290" y="840" /><text fill="#000" font-family="monospace" font-size="14px" font-weight="bold" text-anchor="middle" x="1400.0" y="860">comments</text><line stroke="#ccc" stroke-width="1" x1="1290" x2="1510" y1="870" y2="870" /><text fill="#333" font-family="monospace" font-size="12px" x="1300" y="888">PK id</text><text fill="#333" font-family="monospace" font-size="12px" x="1300" y="904">FK sess_id</text><text fill="#333" font-family="monospace" font-size="12px" x="1300" y="920">FK u_id</text><rect fill="#ffffff" height="98" rx="4" ry="4" stroke="#333" stroke-width="1" width="220" x="1290" y="980" /><text fill="#000" font-family="monospace" font-size="14px" font-weight="bold" text-anchor="middle" x="1400.0" y="1000">comment_likes</text><line stroke="#ccc" stroke-width="1" x1="1290" x2="1510" y1="1010" y2="1010" /><text fill="#333" font-family="monospace" font-size="12px" x="1300" y="1028">PK id</text><text fill="#333" font-family="monospace" font-size="12px" x="1300" y="1044">FK comm_id</text><text fill="#333" font-family="monospace" font-size="12px" x="1300" y="1060">FK u_id</text><rect fill="#ffffff" height="98" rx="4" ry="4" stroke="#333" stroke-width="1" width="220" x="790" y="1100" /><text fill="#000" font-family="monospace" font-size="14px" font-weight="bold" text-anchor="middle" x="900.0" y="1120">casual_posts</text><line stroke="#ccc" stroke-width="1" x1="790" x2="1010" y1="1130" y2="1130" /><text fill="#333" font-family="monospace" font-size="12px" x="800" y="1148">PK id</text><text fill="#333" font-family="monospace" font-size="12px" x="800" y="1164">FK org_id</text><text fill="#333" font-family="monospace" font-size="12px" x="800" y="1180">FK u_id</text><rect fill="#ffffff" height="98" rx="4" ry="4" stroke="#333" stroke-width="1" width="200" x="650" y="1250" /><text fill="#000" font-family="monospace" font-size="14px" font-weight="bold" text-anchor="middle" x="750.0" y="1270">casual_post_likes</text><line stroke="#ccc" stroke-width="1" x1="650" x2="850" y1="1280" y2="1280" /><text fill="#333" font-family="monospace" font-size="12px" x="660" y="1298">PK id</text><text fill="#333" font-family="monospace" font-size="12px" x="660" y="1314">FK post_id</text><text fill="#333" font-family="monospace" font-size="12px" x="660" y="1330">FK u_id</text><rect fill="#ffffff" height="82" rx="4" ry="4" stroke="#333" stroke-width="1" width="200" x="950" y="1250" /><text fill="#000" font-family="monospace" font-size="14px" font-weight="bold" text-anchor="middle" x="1050.0" y="1270">casual_analyses</text><line stroke="#ccc" stroke-width="1" x1="950" x2="1150" y1="1280" y2="1280" /><text fill="#333" font-family="monospace" font-size="12px" x="960" y="1298">PK id</text><text fill="#333" font-family="monospace" font-size="12px" x="960" y="1314">FK org_id</text><rect fill="#ffffff" height="98" rx="4" ry="4" stroke="#333" stroke-width="1" width="220" x="190" y="750" /><text fill="#000" font-family="monospace" font-size="14px" font-weight="bold" text-anchor="middle" x="300.0" y="770">notifications</text><line stroke="#ccc" stroke-width="1" x1="190" x2="410" y1="780" y2="780" /><text fill="#333" font-family="monospace" font-size="12px" x="200" y="798">PK id</text><text fill="#333" font-family="monospace" font-size="12px" x="200" y="814">FK u_id</text><text fill="#333" font-family="monospace" font-size="12px" x="200" y="830">FK org_id</text><path d="M 740.0 726 l 0 20 L 770 746 L 770 849.0 L 790 849.0" fill="none" marker-end="url(url(#arrow))" stroke="#000" stroke-width="1.5" /><path d="M 1060.0 726 l 0 20 L 1030 746 L 1030 849.0 L 1010 849.0" fill="none" marker-end="url(url(#arrow))" stroke="#000" stroke-width="1.5" /><path d="M 630 693.0 l -20 0 L 610.0 693.0 L 610.0 941.0 L 610 941.0 L 630 941.0" fill="none" marker-end="url(url(#arrow))" stroke="#000" stroke-width="1.5" /><path d="M 1060.0 660 l 0 -20 L 1060.0 579.0 L 900.0 579.0 L 900.0 518 L 900.0 498" fill="none" marker-end="url(url(#arrow))" stroke="#000" stroke-width="1.5" /><path d="M 740.0 660 l 0 -20 L 740.0 579.0 L 900.0 579.0 L 900.0 518 L 900.0 498" fill="none" marker-end="url(url(#arrow))" stroke="#000" stroke-dasharray="5 5" stroke-width="1.5" /><path d="M 900.0 400 l 0 -20 L 900.0 366.0 L 900.0 366.0 L 900.0 352 L 900.0 332" fill="none" marker-end="url(url(#arrow))" stroke="#000" stroke-width="1.5" /><path d="M 790 449.0 l -20 0 L 750.0 449.0 L 750.0 234 L 750.0 214" fill="none" marker-end="url(url(#arrow))" stroke="#000" stroke-dasharray="5 5" stroke-width="1.5" /><path d="M 900.0 250 l 0 -20 L 900.0 232.0 L 750.0 232.0 L 750.0 234 L 750.0 214" fill="none" marker-end="url(url(#arrow))" stroke="#000" stroke-width="1.5" /><path d="M 630 693.0 l -20 0 L 620.0 693.0 L 620.0 157.0 L 630 157.0 L 650 157.0" fill="none" marker-end="url(url(#arrow))" stroke="#000" stroke-dasharray="5 5" stroke-width="1.5" /><path d="M 1010 449.0 l 20 0 L 1050.0 449.0 L 1050.0 218 L 1050.0 198" fill="none" marker-end="url(url(#arrow))" stroke="#000" stroke-width="1.5" /><path d="M 850 693.0 l 20 0 L 1020.0 693.0 L 1020.0 149.0 L 1170 149.0 L 1150 149.0" fill="none" marker-end="url(url(#arrow))" stroke="#000" stroke-dasharray="5 5" stroke-width="1.5" /><path d="M 1170 693.0 l 20 0 L 1230.0 693.0 L 1230.0 521.0 L 1270 521.0 L 1290 521.0" fill="none" marker-end="url(url(#arrow))" stroke="#000" stroke-width="1.5" /><path d="M 1400.0 562 l 0 20 L 1400.0 581.0 L 1400.0 581.0 L 1400.0 580 L 1400.0 600" fill="none" marker-end="url(url(#arrow))" stroke="#000" stroke-width="1.5" /><path d="M 1510 521.0 l 20 0 L 1530.0 521.0 L 1530.0 761.0 L 1530 761.0 L 1510 761.0" fill="none" marker-end="url(url(#arrow))" stroke="#000" stroke-width="1.5" /><path d="M 1290 521.0 l -20 0 L 1270.0 521.0 L 1270.0 889.0 L 1270 889.0 L 1290 889.0" fill="none" marker-end="url(url(#arrow))" stroke="#000" stroke-width="1.5" /><path d="M 740.0 726 l 0 20 L 1270 746 L 1270 889.0 L 1290 889.0" fill="none" marker-end="url(url(#arrow))" stroke="#000" stroke-dasharray="5 5" stroke-width="1.5" /><path d="M 1400.0 938 l 0 20 L 1400.0 959.0 L 1400.0 959.0 L 1400.0 960 L 1400.0 980" fill="none" marker-end="url(url(#arrow))" stroke="#000" stroke-width="1.5" /><path d="M 740.0 726 l 0 20 L 1270 746 L 1270 1029.0 L 1290 1029.0" fill="none" marker-end="url(url(#arrow))" stroke="#000" stroke-dasharray="5 5" stroke-width="1.5" /><path d="M 1060.0 726 l 0 20 L 1060.0 913.0 L 900.0 913.0 L 900.0 1080 L 900.0 1100" fill="none" marker-end="url(url(#arrow))" stroke="#000" stroke-width="1.5" /><path d="M 740.0 726 l 0 20 L 740.0 913.0 L 900.0 913.0 L 900.0 1080 L 900.0 1100" fill="none" marker-end="url(url(#arrow))" stroke="#000" stroke-dasharray="5 5" stroke-width="1.5" /><path d="M 790 1149.0 l -20 0 L 750.0 1149.0 L 750.0 1230 L 750.0 1250" fill="none" marker-end="url(url(#arrow))" stroke="#000" stroke-width="1.5" /><path d="M 630 693.0 l -20 0 L 620.0 693.0 L 620.0 1299.0 L 630 1299.0 L 650 1299.0" fill="none" marker-end="url(url(#arrow))" stroke="#000" stroke-dasharray="5 5" stroke-width="1.5" /><path d="M 1060.0 726 l 0 20 L 1060.0 988.0 L 1050.0 988.0 L 1050.0 1230 L 1050.0 1250" fill="none" marker-end="url(url(#arrow))" stroke="#000" stroke-dasharray="5 5" stroke-width="1.5" /><path d="M 630 693.0 l -20 0 L 520.0 693.0 L 520.0 799.0 L 430 799.0 L 410 799.0" fill="none" marker-end="url(url(#arrow))" stroke="#000" stroke-width="1.5" /><path d="M 1060.0 660 l 0 -20 L 1060.0 685.0 L 300.0 685.0 L 300.0 730 L 300.0 750" fill="none" marker-end="url(url(#arrow))" stroke="#000" stroke-dasharray="5 5" stroke-width="1.5" /></svg>